<svg width="47" height="46" viewBox="0 0 47 46" fill="none" xmlns="http://www.w3.org/2000/svg">
<g clip-path="url(#clip0_752_4045)">
<path d="M44.5715 30.9965C45.4969 28.5078 46 25.8125 46 23.0004C46 20.1883 45.4969 17.493 44.5715 15.0043L23 13.0008L1.42852 15.0043C0.503125 17.493 1.52778e-07 20.1883 1.19244e-07 23.0004C8.57101e-08 25.8125 0.503125 28.5078 1.42852 30.9965L23 33L44.5715 30.9965Z" fill="#F0F0F0"/>
<path d="M22.9992 46C32.891 46 41.3184 39.7559 44.5707 30.9961L1.42773 30.9961C4.68008 39.7559 13.1074 46 22.9992 46Z" fill="#012595"/>
<path d="M22.9992 2.57237e-07C13.1074 1.39279e-07 4.68008 6.24414 1.42773 15.0039L44.5707 15.0039C41.3184 6.24414 32.891 3.75196e-07 22.9992 2.57237e-07Z" fill="#D80027"/>
</g>
<defs>
<clipPath id="clip0_752_4045">
<rect width="46.8846" height="46" fill="white"/>
</clipPath>
</defs>
</svg>
