<?xml version="1.0" encoding="utf-8"?>
<!-- Generator: Adobe Illustrator 26.0.1, SVG Export Plug-In . SVG Version: 6.00 Build 0)  -->
<svg version="1.1" id="Layer_1" xmlns="http://www.w3.org/2000/svg" xmlns:xlink="http://www.w3.org/1999/xlink" x="0px" y="0px"
	 viewBox="0 0 512 512" style="enable-background:new 0 0 512 512;" xml:space="preserve">
<style type="text/css">
	.st0{fill:#012595;}
	.st1{fill:#F0F0F0;}
	.st2{fill:#D80027;}
</style>
<circle class="st0" cx="256" cy="256" r="256"/>
<polygon class="st1" points="485.6,231.9 463.9,216.2 442.2,231.9 450.5,206.4 428.8,190.7 455.7,190.7 463.9,165.1 472.2,190.7 
	499.1,190.7 477.4,206.4 "/>
<polygon class="st2" points="457.2,204.7 446.2,196.8 459.8,196.8 463.9,183.9 468.1,196.8 481.7,196.8 470.7,204.7 474.9,217.6 
	463.9,209.7 453,217.6 "/>
<polygon class="st1" points="412.8,125.9 391.1,110.2 369.4,125.9 377.7,100.4 356,84.6 382.8,84.6 391.1,59.1 399.4,84.6 
	426.2,84.6 404.5,100.4 "/>
<polygon class="st2" points="384.4,98.7 373.4,90.8 386.9,90.8 391.1,77.9 395.3,90.8 408.9,90.8 397.9,98.7 402.1,111.6 
	391.1,103.7 380.2,111.6 "/>
<polygon class="st1" points="412.8,422.6 391.1,406.8 369.4,422.6 377.7,397.1 356,381.3 382.8,381.3 391.1,355.8 399.4,381.3 
	426.2,381.3 404.5,397.1 "/>
<polygon class="st2" points="384.4,395.4 373.4,387.5 386.9,387.5 391.1,374.6 395.3,387.5 408.9,387.5 397.9,395.4 402.1,408.3 
	391.1,400.4 380.2,408.3 "/>
<polygon class="st1" points="349.5,231.9 327.8,216.2 306.2,231.9 314.4,206.4 292.7,190.7 319.6,190.7 327.8,165.1 336.1,190.7 
	363,190.7 341.3,206.4 "/>
<polygon class="st2" points="321.1,204.7 310.1,196.8 323.7,196.8 327.9,183.9 332,196.8 345.6,196.8 334.6,204.7 338.8,217.6 
	327.9,209.7 316.9,217.6 "/>
<path class="st1" d="M59,92.5c-17.2,20.8-31.3,44.3-41.3,69.8h46.6L1.9,224.7C0.7,235,0,245.4,0,256h17.4l67.2-67.2V256h75.9v-67.2
	l67.2,67.2H256v-18.5l-75.1-75.1H256V92.5h-75.1L256,17.4V0c-10.6,0-21,0.7-31.3,1.9l-64.2,64.2V18.4
	c-28.1,11.3-53.7,27.4-75.9,47.4v0.3l-0.2-0.2c-8.2,7.4-15.9,15.3-23.1,23.7L59,92.5z"/>
<path class="st2" d="M241,0.4l-80.5,80.5v11.6h5.6L256,2.6V0C251,0,246,0.2,241,0.4z M84.7,92.5V80.9l-7.8-7.8
	c-2.9,2.8-5.7,5.7-8.5,8.7l10.7,10.7H84.7z M160.5,162.4V174l82,82H256v-3.7l-89.9-89.9H160.5z M146.9,24.4
	c-17.4,8.2-33.7,18.3-48.6,30v48H51.2c-11.6,15.5-21.5,32.3-29.5,50.2h76.5V256h48.6V152.6H256v-50.2H146.9V24.4z M0.4,241
	C0.2,246,0,251,0,256h2.6l82-82v-11.6h-5.6L0.4,241z"/>
</svg>
