<svg
    viewBox="0 0 214 46"
    fill="none"
    xmlns="http://www.w3.org/2000/svg"
>
    <g>
    <path
        d="M51.8642 41.086L49.0179 36.2246H45.381L49.1233 42.6542H16.1273L19.8696 36.2246H16.2327L10.6455 45.7382H49.1233C51.548 45.7382 53.0765 43.1769 51.8642 41.086Z"
        fill="#0B0A0A"
    />
    <path
        d="M35.2627 41.0346H38.8997L28.8849 23.8369L27.04 26.9733L35.2627 41.0346Z"
        fill="#0B0A0A"
    />
    <path
        d="M31.7297 15.8385L29.8849 12.7021L19.8701 29.8999H23.5598L31.7297 15.8385Z"
        fill="#0B0A0A"
    />
    <path
        d="M22.4005 9.56591L26.1429 3.13636L42.6409 31.4682H42.5882H35.1562L37.001 34.6045H48.1227L28.8838 1.56818C27.6715 -0.522727 24.667 -0.522727 23.4547 1.56818L20.6084 6.42955L22.4005 9.56591Z"
        fill="#0B0A0A"
    />
    <path
        d="M11.4894 31.4688L9.69727 34.6051H29.6741L27.8293 31.4688H11.4894Z"
        fill="#0B0A0A"
    />
    <path
        d="M3.21444 42.6016L19.7125 14.2698L23.4548 20.6471L25.2997 17.5107L19.6598 7.99707L0.420841 41.0857C-0.791474 43.1766 0.737097 45.7902 3.16173 45.7902H8.80163L10.6465 42.6539H3.21444V42.6016Z"
        fill="#0B0A0A"
    />
    <path
        d="M106.103 26.8691H110.742V16.6236H117.752V12.5986H99.04V16.6236H106.103V26.8691Z"
        fill="#0B0A0A"
    />
    <path
        d="M138.362 12.5986H133.724V20.0214C133.724 21.7986 132.828 22.7395 131.247 22.7395H127.188C125.607 22.7395 124.711 21.7464 124.711 20.0214V12.5986H120.072V20.3873C120.072 24.7259 122.602 27.1305 127.188 27.1305H131.247C135.832 27.1305 138.362 24.7259 138.362 20.3873V12.5986Z"
        fill="#0B0A0A"
    />
    <path
        d="M159.234 26.8691H163.926L164.505 24.6214H173.94L174.52 26.8691H179.211L175.996 14.7941C175.627 13.4873 174.467 12.5986 173.097 12.5986H165.349C163.978 12.5986 162.819 13.4873 162.45 14.7941L159.234 26.8691ZM171.832 16.6236L172.886 20.8055H165.507L166.561 16.6236H171.832Z"
        fill="#0B0A0A"
    />
    <path
        d="M155.809 22.4777C157.443 21.4845 158.339 19.8641 158.339 17.8777C158.339 14.7414 155.809 12.5459 152.225 12.5459H140.734V26.8164H145.373V23.3664H151.224L153.332 26.7641H158.656L155.809 22.4777ZM152.172 19.6027H145.32V16.6232H152.172C153.016 16.6232 153.648 17.3027 153.648 18.0868C153.648 18.9232 152.963 19.6027 152.172 19.6027Z"
        fill="#0B0A0A"
    />
    <path
        d="M195.71 22.8441H184.958V12.5986H180.372V26.8691H195.71V22.8441Z"
        fill="#0B0A0A"
    />
    <path
        d="M85.3901 24.6214H94.7723L95.3521 26.8691H100.043L96.828 14.7941C96.459 13.4873 95.2994 12.5986 93.929 12.5986H86.1807C84.8103 12.5986 83.6507 13.4873 83.2817 14.7941L80.1191 26.8691H84.8103L85.3901 24.6214ZM86.4443 20.8577L87.4985 16.6759H92.7694L93.8236 20.8577H86.4443Z"
        fill="#0B0A0A"
    />
    <path
        d="M64.6218 16.6232H65.8341L69.3657 25.2482C69.7873 26.2414 70.7361 26.9209 71.843 26.9209H78.9588V12.5982H74.3203V22.8436H73.108L69.5765 14.2186C69.1548 13.2254 68.2061 12.5459 67.0992 12.5459H59.9834V26.8164H64.6218V16.6232Z"
        fill="#0B0A0A"
    />
    <path
        d="M187.013 31.208H183.429C178.79 31.208 175.522 34.2398 175.522 38.5785C175.522 42.9171 178.79 46.0012 183.429 46.0012H186.96C191.599 46.0012 194.867 42.9694 194.867 38.6307C194.867 34.2921 191.652 31.208 187.013 31.208ZM190.176 38.6307C190.176 40.4603 188.858 41.7148 187.013 41.7148H183.429C181.531 41.7148 180.266 40.4603 180.266 38.6307C180.266 36.8535 181.584 35.5466 183.429 35.5466H186.96C188.858 35.4944 190.176 36.8012 190.176 38.6307Z"
        fill="#0B0A0A"
    />
    <path
        d="M174.415 31.4688H169.776V45.7915H174.415V31.4688Z"
        fill="#0B0A0A"
    />
    <path
        d="M150.959 35.4937H156.915V45.7392H161.554V35.4937H167.457V31.4688H150.959V35.4937Z"
        fill="#0B0A0A"
    />
    <path
        d="M73.0026 36.7483C73.0026 36.7483 65.4652 36.7483 65.3598 36.7483C65.0435 36.7483 64.7272 36.4869 64.7272 36.121C64.7272 35.7551 64.9381 35.546 65.2543 35.4937H77.1139V31.4688H76.8504C76.8504 31.4688 64.4637 31.521 64.411 31.521C62.0391 31.521 59.9834 33.5597 59.9834 36.0165C59.9834 38.4733 61.9864 40.5642 64.411 40.5642H72.0538C72.3701 40.5642 72.6337 40.8256 72.6337 41.1392C72.6337 41.4528 72.3701 41.7142 72.1066 41.7142C72.0011 41.7142 60.4578 41.7665 60.2997 41.7665H60.0361V45.7915H72.8445C75.3745 45.7915 77.3248 43.9097 77.3248 41.4528C77.3775 38.9437 75.3745 36.8006 73.0026 36.7483Z"
        fill="#0B0A0A"
    />
    <path
        d="M101.939 31.4688H97.3008V45.7392H112.692V41.7665H101.939V31.4688Z"
        fill="#0B0A0A"
    />
    <path
        d="M131.456 38.6301C131.456 42.9165 134.619 45.7915 139.362 45.7915H148.639V41.7665H139.362C137.518 41.7142 136.147 40.4074 136.147 38.6301C136.147 36.8528 137.518 35.4937 139.362 35.4937H148.639V31.4688H139.362C134.619 31.4688 131.456 34.3438 131.456 38.6301Z"
        fill="#0B0A0A"
    />
    <path
        d="M113.853 33.0892V44.1187C113.853 45.0074 114.59 45.7392 115.487 45.7392H130.298V41.7142H118.491V40.5119H129.191V36.696H118.491V35.4415H130.298V31.4688H115.487C114.59 31.4688 113.853 32.2006 113.853 33.0892Z"
        fill="#0B0A0A"
    />
    <path
        d="M78.5371 33.0892V44.1187C78.5371 45.0074 79.275 45.7392 80.1711 45.7392H94.9824V41.7142H83.1755V40.5119H93.8755V36.696H83.1755V35.4415H94.9824V31.4688H80.1711C79.275 31.4688 78.5371 32.2006 78.5371 33.0892Z"
        fill="#0B0A0A"
    />
    <path
        d="M209.362 31.4688V41.7142H208.677L205.145 33.1415C204.723 32.1483 203.775 31.4688 202.668 31.4688H196.079V45.7392H200.718V35.4937H201.403L204.934 44.1187C205.356 45.1119 206.305 45.7915 207.412 45.7915H214V31.4688H209.362Z"
        fill="#0B0A0A"
    />
    </g>
</svg>