<?xml version="1.0" standalone="no"?>
<!DOCTYPE svg PUBLIC "-//W3C//DTD SVG 20010904//EN"
 "http://www.w3.org/TR/2001/REC-SVG-20010904/DTD/svg10.dtd">
<svg version="1.0" xmlns="http://www.w3.org/2000/svg"
 width="198.000000pt" height="198.000000pt" viewBox="0 0 198.000000 198.000000"
 preserveAspectRatio="xMidYMid meet">
<metadata>
Created by potrace 1.14, written by Peter Selinger 2001-2017
</metadata>
<g transform="translate(0.000000,198.000000) scale(0.100000,-0.100000)"
fill="#000000" stroke="none">
<path d="M955 1851 c-30 -13 -57 -47 -115 -146 l-52 -90 33 -63 c39 -74 31
-79 116 71 31 54 59 97 64 95 5 -2 121 -199 260 -438 330 -571 348 -603 346
-615 -1 -6 -51 -10 -127 -10 -75 0 -126 -4 -127 -10 -1 -5 11 -33 27 -61 l29
-51 210 -2 c116 -1 211 1 211 3 0 3 -26 51 -57 106 -71 123 -68 117 -124 215
-88 150 -382 660 -402 695 -97 173 -150 259 -170 278 -26 24 -90 36 -122 23z"/>
<path d="M747 1543 c-5 -8 -51 -88 -457 -793 -106 -184 -201 -348 -211 -365
-72 -117 -82 -160 -54 -215 26 -50 59 -60 198 -60 l124 0 29 52 c16 29 31 56
32 60 2 5 -58 8 -133 8 -115 0 -136 2 -132 14 3 8 90 160 193 338 102 178 236
409 296 513 60 105 113 194 118 198 4 5 38 -44 75 -108 37 -64 71 -113 75
-108 5 4 21 31 38 59 l29 50 -102 177 c-110 192 -111 192 -118 180z"/>
<path d="M950 1048 c-102 -177 -186 -325 -188 -329 -2 -3 28 -7 67 -8 l69 -1
35 57 c19 32 46 78 59 103 14 25 69 120 122 212 l98 168 -34 60 c-18 33 -35
60 -38 60 -3 -1 -88 -145 -190 -322z"/>
<path d="M1068 888 l-37 -62 19 -31 c10 -16 27 -46 37 -65 48 -85 246 -426
252 -432 8 -9 128 -15 136 -7 3 3 -27 62 -66 130 -39 68 -80 140 -91 159 -29
50 -211 365 -212 367 -1 1 -18 -25 -38 -59z"/>
<path d="M430 630 c-18 -27 -50 -86 -50 -94 0 -3 169 -5 375 -5 206 1 375 4
375 8 0 4 -15 31 -33 61 l-32 55 -308 0 -309 0 -18 -25z"/>
<path d="M517 295 l-104 -180 741 -3 c541 -2 749 1 769 9 41 17 57 47 57 107
0 46 -7 64 -57 150 l-58 97 -67 1 c-38 0 -68 -2 -68 -6 0 -3 29 -56 65 -118
36 -61 65 -114 65 -117 0 -3 -279 -5 -619 -5 l-619 0 64 111 c36 61 66 116 67
122 1 7 -23 11 -65 12 l-67 1 -104 -181z"/>
</g>
</svg>
