<svg enable-background="new 0 0 455.5 220.5" viewBox="0 0 455.5 220.5" xmlns="http://www.w3.org/2000/svg"><g fill="#fff"><path d="m206.7 20.4c-7.5 3.4-12 10.6-12.5 18.3-5.7-4-13.3-5.1-20.2-2.4.3.9.6 1.8 1 2.6 2.6 5.8 7.5 9.8 13.2 11.6-3.2 4.9-7.4 9.2-12.4 12.4-2.1 1.5-4.5 2.1-7.2 2.4-6.8.8-13.1-2.7-16.2-8.4-2.5 4.4-6.9 7.6-12.2 8.2-2.9.3-5.7-.1-8.2-1.2-1-.6-1.9-1.2-2.9-1.8-5.5-3.8-10.1-9-13.2-15.1-1.2-2.4-2.3-5-3-7.7h.4c6.4-.7 12.4-4.3 16-10.3.4-.6.7-1.2 1-1.9-.6-.4-1.2-.8-1.8-1.2-5.3-3.2-11.5-3.8-17-2.1-.7.2-1.3.4-1.9.7 0-7.5-5.6-18.8-12.5-22.9-.8-.5-1.9-1-2.7-1.4l-.6-.2-.4.5c-.5.7-1 1.4-1.5 2.2-4.1 6.9-2.9 19.3.9 25.8-.7.1-1.4.2-2 .3-5.6 1.2-10.7 4.7-13.9 10-.4.6-.7 1.3-1 1.9.6.4 1.2.8 1.8 1.2 6 3.5 13 3.8 18.9 1.3.1 0 .2-.1.3-.1.6 2.7 1 5.5 1 8.2.2 6.1-1 12.1-3.4 17.6v-.1c-.1.2-.1.4-.2.6-.2.5-.5 1-.7 1.6-.6 1.3-1.3 2.5-2 3.6-1.7 2.2-4 3.9-6.8 5-5 2-10.4 1.3-14.7-1.4 0 6.5-3.9 12.6-10.3 15.1-1.5.6-3 .9-4.5 1.1-6.8-.1-13.4-1.9-19.2-5 4.1-4.2 6.5-10.1 6-16.5-.1-.9-.2-2.7-.4-3.6-7.4.9-13.4 7.5-16.5 11-4.1-3.5-11.5-9.8-19.7-9.2-1.9.1-3.7 1-5.5 1.6 9.1 6.8 17.8 14.3 26.1 22.2 5.8 5.5 11.3 11.4 16.6 17.5 7.4 8.4 19.9 25.4 19.9 25.4 1.5 2.2 7.8 5 12.1 4.5.7-.1 1-.7 1-1.1.1-.4-.7-.7-1.1-.9-3.7-1.6-5.1-3.6-6.1-6.7-2.4-7.4 19.8-20.8 52.2-29s58.4-7.2 59.9.4c.6 3.3.4 5.6-2.1 8.8-.3.3-.8 1-.5 1.3.2.3.8.8 1.4.5 3.9-1.7 8.1-7.1 8.4-9.8 0 0 3.5-21.1 5.9-32 1.7-7.8 3.8-15.6 6.2-23.2 3.4-10.9 7.5-21.5 12.2-31.8-1.8.3-3.6.8-5.4 1.6"/><path d="m92.3 121s25.7-11.6 54.8-15.1c0 0 36.8 3.6 36.8 46.8s-30.7 67.8-72.5 67.8-63.8-18.4-63.8-38 14.1-22.8 20.7-22.8 18.4 5.9 18.4 21.3c0 0-11.8-2.9-11.8 7.3s14 16.6 33.1 16.6 46.2-8.4 46.2-45.8c0-39.9-18.5-41.7-31.3-41.7v68.4s.3 6 6.7 6c0 0-6.7 5.7-23.4 5.7s-21.4-5.4-21.4-5.4 7.9 0 7.9-6.9c-.2-6.9-.4-64.2-.4-64.2"/><path d="m252.5 103.3h1.6v55h-1.6z" transform="matrix(.7071 .7071 -.7071 .7071 166.7057 -140.7931)"/><path d="m252.5 103.3h1.6v55h-1.6z" transform="matrix(.7071 -.7071 .7071 .7071 -18.323 217.4344)"/><path d="m454.2 189.7-8.6-14.9h-11.1l11.3 19.6h-99.9l11.3-19.6h-11.1l-16.9 29.2h116.7c7.4.1 12-7.9 8.3-14.3z"/><path d="m403.8 189.6h11.1l-30.4-52.6-5.5 9.6z"/><path d="m393.1 112.6-5.6-9.6-30.3 52.6h11.1z"/><path d="m364.9 93.4 11.3-19.6 50 86.6h-.1-22.6l5.5 9.6h33.7.1l-58.3-101.1c-3.7-6.4-12.9-6.4-16.5 0l-8.6 14.9z"/><path d="m331.8 160.4-5.5 9.6h60.6l-5.5-9.6z"/><path d="m306.6 194.4 50-86.6 11.3 19.6 5.5-9.6-16.8-29.2-58.4 101.1c-3.7 6.4.9 14.3 8.3 14.3h17.2l5.5-9.6z"/></g></svg>